<svg width="296" height="317" viewBox="0 0 296 317" fill="none" xmlns="http://www.w3.org/2000/svg">
<path d="M68.0217 316.5C54.0217 316.5 23.3217 310.2 12.5217 285C16.6884 270.667 30.0217 240 50.0217 232C40.3551 219.333 33.6217 192.3 84.0217 185.5M84.0217 185.5C66.8551 178.833 38.5217 148 67.0217 106.5C77.5217 95.0001 91.1217 90.0999 111.522 94.4999L133.022 88L124.522 106.5L135.522 104C122.522 122.833 106.722 158.3 147.522 149.5V158M84.0217 185.5C89.8551 186.333 102.522 186.9 106.522 182.5M147.522 158C159.522 154.167 179.522 145.5 198.022 177C201.522 156.5 221.022 142 254.522 162C250.188 146.333 245.322 119.2 248.522 104C241.188 103.167 228.522 96.6 236.522 77M147.522 158C142.322 161.2 134.855 169.5 133.022 174M236.522 77L246.522 88L257.522 77.1719M236.522 77L227.077 64.5M278.522 56.5C276.855 65.1666 269.722 89.3999 264.522 99L293.522 167.5C280.355 194.167 242.522 239.315 212.522 224.5M278.522 56.5L261.522 35.0476M278.522 56.5L268.522 66.3438M212.522 224.5C214.522 234.5 217.322 261.2 212.522 270L228.022 314.5M212.522 224.5C207.022 228.5 204.522 231 197.522 236M67.0217 247.5C67.0217 265.5 71.5217 270 76.5217 278M76.5217 278C88.0217 289.5 99.5873 297.789 116.522 316.5M76.5217 278C75.7217 286.453 70.3551 288.044 68.0217 289.5M217.633 52L202.522 32L214.799 21.7083M217.633 52L186.022 77M217.633 52L227.077 64.5M186.022 77L195.522 88M186.022 77L170.522 60L163.253 66.3438M195.522 88L227.077 64.5M195.522 88L216.022 112.5L207.022 120.054M158.166 101.5L143.022 84L153.137 75.1719M158.166 101.5L152.022 106.5L165.022 122L170.522 115.778M158.166 101.5L170.522 115.778M170.522 115.778L188.022 136L197.522 128.027M251.578 22.5L236.522 3.5L227.077 11.4167M251.578 22.5L259.022 16.5L268.522 30L261.522 35.0476M251.578 22.5L261.522 35.0476M227.077 11.4167L268.522 66.3438M227.077 11.4167L214.799 21.7083M268.522 66.3438L257.522 77.1719M214.799 21.7083L257.522 77.1719M163.253 66.3438L207.022 120.054M163.253 66.3438L153.137 75.1719M207.022 120.054L197.522 128.027M153.137 75.1719L197.522 128.027M257.522 174C252.355 179.167 240.022 189.5 232.022 189.5M106.522 260.5C117.188 278.5 144.922 314.5 170.522 314.5M116.522 173C110.855 181 97.5495 191.5 88.5217 179C82.3828 170.5 85.5217 163.5 91.0217 158M127.522 250.5C134.188 262.333 151.022 284.4 165.022 278M96.5217 266C98.3551 274.037 100.922 289.988 96.5217 289.5M88.0215 94L82.5215 60.5C89.8548 51.5 100.121 33.6 82.5215 34C64.9215 34.4 58.1881 49.5 57.0215 57C47.3548 45.1667 28.6215 31.1 31.0215 69.5C22.8547 67 1.2216 66.9 2.0216 82.5C2.8216 98.1 17.6879 96.3333 22.5215 94L57.0215 129M34.5215 82.5L57.0215 105M69.0215 60.5L73.0215 87M51.0217 66L61.0217 90.5M20.5987 160L31.9699 192.752M245.5 259L240 303.5M256.357 275L249.066 305.056M15.7843 176.876L19.3871 196.549M112 52L129 68M191 38L175.119 55.1115M143 3V60M177.5 14L162 52" stroke="#FFFCF5" stroke-width="4"/>
</svg>
